<svg width="18" height="24" viewBox="0 0 18 24" fill="none" xmlns="http://www.w3.org/2000/svg">
<path d="M10.944 9.848C13.0133 10.104 14.592 10.808 15.68 11.96C16.768 13.112 17.312 14.552 17.312 16.28C17.312 17.5813 16.9813 18.7653 16.32 19.832C15.6587 20.8987 14.656 21.752 13.312 22.392C11.9893 23.0107 10.368 23.32 8.448 23.32C6.848 23.32 5.30133 23.096 3.808 22.648C2.336 22.1787 1.07733 21.5387 0.032 20.728L1.824 17.496C2.63467 18.1787 3.616 18.7227 4.768 19.128C5.94133 19.512 7.14667 19.704 8.384 19.704C9.856 19.704 11.008 19.4053 11.84 18.808C12.6933 18.1893 13.12 17.3573 13.12 16.312C13.12 15.2667 12.7147 14.456 11.904 13.88C11.1147 13.2827 9.89867 12.984 8.256 12.984H6.208V10.136L11.296 4.088H1.12V0.599998H16.384V3.384L10.944 9.848Z" fill="white"/>
</svg>
