<svg width="19" height="23" viewBox="0 0 19 23" fill="none" xmlns="http://www.w3.org/2000/svg">
<path d="M18.132 19.48V23H1.62V20.216L10.516 11.768C11.5187 10.808 12.1907 9.976 12.532 9.272C12.8947 8.54667 13.076 7.832 13.076 7.128C13.076 6.08267 12.724 5.28267 12.02 4.728C11.316 4.17333 10.2813 3.896 8.916 3.896C6.63333 3.896 4.884 4.67467 3.668 6.232L0.756 3.992C1.63067 2.81867 2.804 1.912 4.276 1.272C5.76933 0.610666 7.43333 0.279999 9.268 0.279999C11.7 0.279999 13.6413 0.855999 15.092 2.008C16.5427 3.16 17.268 4.728 17.268 6.712C17.268 7.928 17.012 9.06933 16.5 10.136C15.988 11.2027 15.0067 12.4187 13.556 13.784L7.572 19.48H18.132Z" fill="white"/>
</svg>
