<svg width="94" height="78" viewBox="0 0 94 78" fill="none" xmlns="http://www.w3.org/2000/svg">
<path d="M28.75 38.75C32.4167 40.25 35.25 42.6667 37.25 46C39.4167 49.1667 40.5 53 40.5 57.5C40.5 63.5 38.5833 68.4167 34.75 72.25C30.9167 76.0833 26.1667 78 20.5 78C14.5 78 9.58333 76.0833 5.75 72.25C1.91667 68.4167 7.07805e-07 63.5 7.07805e-07 57.5C7.07805e-07 54.5 0.333334 51.5833 1 48.75C1.83333 45.9167 3.33333 41.6667 5.5 36L18.75 0.499989H38.75L28.75 38.75ZM81.75 38.75C85.4167 40.25 88.25 42.6667 90.25 46C92.4167 49.1667 93.5 53 93.5 57.5C93.5 63.5 91.5833 68.4167 87.75 72.25C83.9167 76.0833 79.1667 78 73.5 78C67.5 78 62.5833 76.0833 58.75 72.25C54.9167 68.4167 53 63.5 53 57.5C53 54.5 53.3333 51.5833 54 48.75C54.8333 45.9167 56.3333 41.6667 58.5 36L71.75 0.499989H91.75L81.75 38.75Z" fill="white"/>
</svg>
