<svg aria-hidden="true" style="position: absolute; width: 0; height: 0; overflow: hidden;" version="1.1" xmlns="http://www.w3.org/2000/svg" xmlns:xlink="http://www.w3.org/1999/xlink">
<defs>
<symbol id="icon-question-arrow" viewBox="0 0 25 32">
<path d="M9.708 19.708c0-1.327 0.296-2.428 0.889-3.304 0.593-0.904 1.44-1.878 2.541-2.922 0.706-0.678 1.214-1.228 1.525-1.652 0.339-0.424 0.508-0.875 0.508-1.355 0-0.621-0.268-1.101-0.805-1.44-0.536-0.367-1.214-0.551-2.033-0.551-0.904 0-1.751 0.268-2.541 0.805-0.791 0.508-1.412 1.2-1.864 2.075l-7.539-3.769c1.129-2.146 2.795-3.826 4.998-5.040 2.231-1.214 4.969-1.821 8.216-1.821 3.445 0 6.24 0.706 8.386 2.118s3.219 3.402 3.219 5.972c0 1.186-0.212 2.231-0.635 3.134-0.395 0.875-0.875 1.624-1.44 2.245-0.565 0.593-1.285 1.256-2.16 1.991-0.904 0.791-1.553 1.426-1.948 1.906s-0.593 1.016-0.593 1.609h-8.725zM14.071 31.482c-1.638 0-2.979-0.494-4.024-1.482s-1.567-2.188-1.567-3.6c0-1.44 0.522-2.626 1.567-3.558 1.045-0.96 2.386-1.44 4.024-1.44s2.979 0.48 4.024 1.44c1.045 0.932 1.567 2.118 1.567 3.558 0 1.412-0.522 2.612-1.567 3.6s-2.386 1.482-4.024 1.482z"></path>
</symbol>
<symbol id="icon-arrow-left" viewBox="0 0 32 32">
<path d="M12.586 27.414l-10-10c-0.781-0.781-0.781-2.047 0-2.828l10-10c0.781-0.781 2.047-0.781 2.828 0s0.781 2.047 0 2.828l-6.586 6.586h19.172c1.105 0 2 0.895 2 2s-0.895 2-2 2h-19.172l6.586 6.586c0.39 0.39 0.586 0.902 0.586 1.414s-0.195 1.024-0.586 1.414c-0.781 0.781-2.047 0.781-2.828 0z"></path>
</symbol>
<symbol id="icon-cross" viewBox="0 0 32 32">
<path d="M31.708 25.708c-0-0-0-0-0-0l-9.708-9.708 9.708-9.708c0-0 0-0 0-0 0.105-0.105 0.18-0.227 0.229-0.357 0.133-0.356 0.057-0.771-0.229-1.057l-4.586-4.586c-0.286-0.286-0.702-0.361-1.057-0.229-0.13 0.048-0.252 0.124-0.357 0.228 0 0-0 0-0 0l-9.708 9.708-9.708-9.708c-0-0-0-0-0-0-0.105-0.104-0.227-0.18-0.357-0.228-0.356-0.133-0.771-0.057-1.057 0.229l-4.586 4.586c-0.286 0.286-0.361 0.702-0.229 1.057 0.049 0.13 0.124 0.252 0.229 0.357 0 0 0 0 0 0l9.708 9.708-9.708 9.708c-0 0-0 0-0 0-0.104 0.105-0.18 0.227-0.229 0.357-0.133 0.355-0.057 0.771 0.229 1.057l4.586 4.586c0.286 0.286 0.702 0.361 1.057 0.229 0.13-0.049 0.252-0.124 0.357-0.229 0-0 0-0 0-0l9.708-9.708 9.708 9.708c0 0 0 0 0 0 0.105 0.105 0.227 0.18 0.357 0.229 0.356 0.133 0.771 0.057 1.057-0.229l4.586-4.586c0.286-0.286 0.362-0.702 0.229-1.057-0.049-0.13-0.124-0.252-0.229-0.357z"></path>
</symbol>
<symbol id="icon-tel-ua" viewBox="0 0 46 32">
<path fill="#4468e9" style="fill: var(--color1, #4468e9)" d="M0 0h45.714v16h-45.714v-16z"></path>
<path fill="#faff2a" style="fill: var(--color2, #faff2a)" d="M0 16h45.714v16h-45.714v-16z"></path>
</symbol>
</defs>
</svg>
